<svg xmlns="http://www.w3.org/2000/svg" viewBox="0 0 1280 720" role="img" aria-labelledby="title desc">
  <title id="title">翔翔老師的 AI 魔法教室音樂 MV 縮圖</title>
  <desc id="desc">藍色魔法教室風格的音樂 MV 縮圖。</desc>
  <defs>
    <linearGradient id="bg" x1="0" x2="1" y1="0" y2="1">
      <stop offset="0" stop-color="#2767b1"/>
      <stop offset="0.52" stop-color="#5ea5e8"/>
      <stop offset="1" stop-color="#8ad8ff"/>
    </linearGradient>
    <radialGradient id="glow" cx="72%" cy="28%" r="58%">
      <stop offset="0" stop-color="#ffffff" stop-opacity="0.72"/>
      <stop offset="1" stop-color="#ffffff" stop-opacity="0"/>
    </radialGradient>
    <filter id="shadow" x="-20%" y="-20%" width="140%" height="140%">
      <feDropShadow dx="0" dy="18" stdDeviation="18" flood-color="#163254" flood-opacity="0.32"/>
    </filter>
  </defs>
  <rect width="1280" height="720" rx="54" fill="url(#bg)"/>
  <rect width="1280" height="720" rx="54" fill="url(#glow)"/>
  <g opacity="0.24" fill="none" stroke="#fff" stroke-width="4">
    <path d="M96 126h1088M96 254h1088M96 382h1088M96 510h1088M218 62v596M442 62v596M666 62v596M890 62v596M1114 62v596"/>
  </g>
  <g filter="url(#shadow)">
    <rect x="94" y="92" width="1092" height="536" rx="44" fill="#f8fbff" opacity="0.18"/>
    <rect x="132" y="130" width="1016" height="460" rx="34" fill="#123a66" opacity="0.32"/>
  </g>
  <g transform="translate(120 96)">
    <circle cx="182" cy="130" r="64" fill="#ffffff" opacity="0.22"/>
    <path d="M180 78v92c-13-8-34-7-45 3-17 16-8 43 18 47 29 4 47-13 47-39V118l68 22V96z" fill="#fff"/>
    <path d="M73 356c94-126 217-170 366-132 88 23 154 13 214-27 54-36 107-45 172-17 58 25 103 70 141 136" fill="none" stroke="#fff" stroke-width="12" stroke-linecap="round" opacity="0.42"/>
  </g>
  <g transform="translate(126 438)">
    <rect x="0" y="-42" width="678" height="164" rx="26" fill="#0e2744" opacity="0.7"/>
    <text x="34" y="18" fill="#ffffff" font-family="'Microsoft JhengHei', 'Noto Sans TC', sans-serif" font-size="56" font-weight="800">翔翔老師的 AI 魔法教室</text>
    <text x="36" y="82" fill="#dcefff" font-family="'Microsoft JhengHei', 'Noto Sans TC', sans-serif" font-size="38" font-weight="700">音樂 MV</text>
  </g>
  <g transform="translate(898 148)">
    <path d="M102 0l24 74 78 1-63 45 23 75-62-46-64 46 24-75L0 75l78-1z" fill="#fff5a6" opacity="0.95"/>
    <path d="M210 178l14 42 44 1-36 26 14 42-36-26-36 26 14-42-36-26 44-1z" fill="#ffffff" opacity="0.82"/>
    <path d="M6 238l12 36 38 1-31 22 12 36-31-22-31 22 12-36-31-22 38-1z" fill="#ffffff" opacity="0.66"/>
  </g>
</svg>
