<svg xmlns="http://www.w3.org/2000/svg" viewBox="0 0 1280 720" role="img" aria-labelledby="title desc">
  <title id="title">未來的小一新生家訪縮圖</title>
  <desc id="desc">溫暖粉紅與校園家訪主題的音樂 MV 縮圖。</desc>
  <defs>
    <linearGradient id="bg" x1="0" x2="1" y1="0" y2="1">
      <stop offset="0" stop-color="#d84f72"/>
      <stop offset="0.5" stop-color="#e85d75"/>
      <stop offset="1" stop-color="#f1b84b"/>
    </linearGradient>
    <filter id="shadow" x="-20%" y="-20%" width="140%" height="140%">
      <feDropShadow dx="0" dy="18" stdDeviation="16" flood-color="#6b1c35" flood-opacity="0.34"/>
    </filter>
  </defs>
  <rect width="1280" height="720" rx="54" fill="url(#bg)"/>
  <g opacity="0.16" fill="#fff">
    <circle cx="136" cy="122" r="54"/>
    <circle cx="1142" cy="166" r="92"/>
    <circle cx="1030" cy="602" r="172"/>
  </g>
  <g transform="translate(106 126)" filter="url(#shadow)">
    <path d="M74 122c72-70 166-70 238 0 72-70 166-70 238 0 48 47 53 122 8 177L312 542 66 299c-45-55-40-130 8-177z" fill="#fff6ec"/>
    <path d="M176 280h272v150H176z" fill="#e85d75"/>
    <path d="M146 280l166-132 166 132" fill="none" stroke="#6c203a" stroke-width="28" stroke-linecap="round" stroke-linejoin="round"/>
    <rect x="278" y="336" width="68" height="94" rx="10" fill="#fff5d1"/>
  </g>
  <g transform="translate(760 110)" filter="url(#shadow)">
    <rect x="0" y="0" width="330" height="330" rx="165" fill="#ffffff" opacity="0.2"/>
    <path d="M166 72v160c-23-14-60-12-80 6-31 28-16 76 31 84 52 8 83-22 83-68V144l118 40V106z" fill="#fff"/>
  </g>
  <g opacity="0.42" fill="none" stroke="#fff" stroke-width="8" stroke-linecap="round">
    <path d="M642 502c80-72 146-98 198-78 70 26 106 17 156-35"/>
    <path d="M688 566c50-34 104-43 162-26 54 16 108 6 162-30"/>
  </g>
  <g transform="translate(126 504)">
    <rect x="0" y="-50" width="810" height="160" rx="26" fill="#441427" opacity="0.68"/>
    <text x="34" y="12" fill="#ffffff" font-family="'Microsoft JhengHei', 'Noto Sans TC', sans-serif" font-size="52" font-weight="800">未來的小一新生家訪</text>
    <text x="36" y="78" fill="#ffe8bf" font-family="'Microsoft JhengHei', 'Noto Sans TC', sans-serif" font-size="34" font-weight="700">第一次用 AI 把心情唱成故事</text>
  </g>
</svg>
